Coordinates
version=1
nRows=22
nColumns=24
inDegrees=yes

Units are S.I. units (second, meters, Newtons, ...)
Angles are in degrees.

endheader
time	pelvis_tilt	pelvis_list	pelvis_rotation	pelvis_tx	pelvis_ty	pelvis_tz	hip_flexion_r	hip_adduction_r	hip_rotation_r	knee_angle_r	ankle_angle_r	subtalar_angle_r	mtp_angle_r	hip_flexion_l	hip_adduction_l	hip_rotation_l	knee_angle_l	ankle_angle_l	subtalar_angle_l	mtp_angle_l	lumbar_extension	lumbar_bending	lumbar_rotation
      4.40000000	    -10.66636835	      4.71196423	     -0.70316032	     -0.78547714	     -0.02136679	     -0.64183368	     12.96577849	     -7.16761851	     -3.82501112	    -57.28888181	    -19.16636851	    -15.14160428	     -1.51150779	     28.59864816	      5.29220931	    -12.23253100	    -23.65711123	      0.89603852	     -9.18188496	      4.63880490	      7.09008373	     -5.89697235	      0.56617511
      4.40500000	    -10.59028190	      4.67246282	     -0.57806546	     -0.77996696	     -0.02041738	     -0.64259204	     13.78517478	     -7.11472263	     -3.79975255	    -58.52997094	    -18.78851271	    -15.48070103	     -1.31909552	     27.99260655	      5.40084182	    -12.06201269	    -23.39235286	      1.13861115	     -9.05459792	      4.73238436	      6.94945965	     -5.87156177	      0.30775098
      4.41000000	    -10.71913059	      4.62120855	     -0.48414742	     -0.77453992	     -0.01974477	     -0.64333519	     14.87367530	     -7.04171485	     -3.72691798	    -59.76350289	    -18.33880956	    -15.71783823	     -0.88132510	     27.64512319	      5.45544221	    -12.04724179	    -23.17467724	      1.39527628	     -8.93399394	      4.86967422	      7.03428890	     -5.81556176	      0.06109450
      4.41500000	    -10.67153134	      4.54503387	     -0.37420978	     -0.76906827	     -0.01878732	     -0.64407160	     15.71884062	     -6.94192655	     -3.71684016	    -60.84876448	    -17.85266148	    -15.99049844	     -0.65290608	     27.05126146	      5.52345988	    -11.84413517	    -22.87130623	      1.63334499	     -8.82498627	      4.94007228	      6.93170678	     -5.74006354	     -0.15149655
      4.42000000	    -10.83584836	      4.45884618	     -0.28178813	     -0.76370852	     -0.01813137	     -0.64485564	     16.83664041	     -6.83170653	     -3.64866816	    -61.92619030	    -17.28595817	    -16.03070876	     -0.09836770	     26.73329943	      5.55829688	    -11.74512298	    -22.62794266	      1.86122372	     -8.78343842	      4.98024745	      7.05340273	     -5.63147963	     -0.36965639
      4.42500000	    -10.87447522	      4.38840933	     -0.15999469	     -0.75830236	     -0.01729852	     -0.64562165	     17.77649992	     -6.75253523	     -3.65958910	    -62.88482484	    -16.70439020	    -16.13035195	      0.32066511	     26.24718380	      5.62628692	    -11.61902799	    -22.33112334	      2.06399815	     -8.70261981	      4.98457256	      7.04598214	     -5.55251990	     -0.63205551
      4.43000000	    -10.94196597	      4.30446827	     -0.06428432	     -0.75293327	     -0.01649602	     -0.64637435	     18.75201271	     -6.64776610	     -3.63696176	    -63.77201300	    -16.11139279	    -16.13856525	      0.77363893	     25.78497309	      5.67626039	    -11.45354529	    -22.01893418	      2.26600521	     -8.65778308	      4.95064915	      7.07214347	     -5.44837589	     -0.82941567
      4.43500000	    -11.01342534	      4.22355006	      0.02570710	     -0.74758708	     -0.01570252	     -0.64711193	     19.72562235	     -6.54423000	     -3.61407081	    -64.57998224	    -15.52802531	    -16.11783021	      1.28055435	     25.32328550	      5.72702444	    -11.29484689	    -21.69477238	      2.44970664	     -8.63330368	      4.86561341	      7.10466867	     -5.34349648	     -1.02340617
      4.44000000	    -11.07113407	      4.15234857	      0.11996688	     -0.74223116	     -0.01490624	     -0.64784425	     20.66976455	     -6.45347988	     -3.59992582	    -65.30684567	    -14.94695409	    -16.07023464	      1.80461108	     24.83272382	      5.78991496	    -11.13190737	    -21.34482538	      2.63329276	     -8.59996180	      4.75947618	      7.12719766	     -5.24916497	     -1.20845439
      4.44500000	    -11.12381580	      4.08944517	      0.20697124	     -0.73687408	     -0.01412062	     -0.64855508	     21.59765693	     -6.36857390	     -3.57989117	    -65.95388237	    -14.37610548	    -15.99367181	      2.38816577	     24.32762289	      5.85844647	    -10.97251441	    -20.97742980	      2.80538654	     -8.57886771	      4.61800408	      7.15064503	     -5.15940092	     -1.38396451
      4.45000000	    -11.16252835	      4.03656466	      0.29614856	     -0.73151110	     -0.01333540	     -0.64925271	     22.49338518	     -6.29393249	     -3.56195236	    -66.51565303	    -13.82084483	    -15.90497720	      3.04225600	     23.79520103	      5.93781973	    -10.81570687	    -20.58729850	      2.97295101	     -8.55811545	      4.44671870	      7.16283197	     -5.08053478	     -1.55571197
      4.45500000	    -11.19788670	      3.97368434	      0.34510573	     -0.72612315	     -0.01253325	     -0.64995771	     23.37243492	     -6.19447656	     -3.49897132	    -66.96240854	    -13.41133593	    -15.86958536	      4.16791903	     23.23517523	      6.00798548	    -10.61469809	    -20.16113079	      3.14950858	     -8.61569796	      4.06745534	      7.18733125	     -4.97173175	     -1.66951753
      4.46000000	    -11.16789621	      3.92989644	      0.46044630	     -0.72071227	     -0.01170910	     -0.65062139	     24.14076873	     -6.13975015	     -3.53240117	    -67.34685098	    -12.85581426	    -15.79682508	      4.74657659	     22.60523322	      6.09327949	    -10.48242628	    -19.73541489	      3.33968753	     -8.49742842	      3.95426298	      7.13531420	     -4.91154817	     -1.86346404
      4.46500000	    -11.14011628	      3.91507370	      0.56256337	     -0.71533000	     -0.01092468	     -0.65124972	     24.90725459	     -6.10871443	     -3.54611453	    -67.66843941	    -12.28855982	    -15.73481755	      5.29375152	     21.97392519	      6.20180350	    -10.37498254	    -19.29237717	      3.47049576	     -8.43488470	      3.85149419	      7.08314628	     -4.88014613	     -2.04867577
      4.47000000	    -11.08356947	      3.88551565	      0.63541126	     -0.70990431	     -0.01008782	     -0.65193307	     25.61136884	     -6.06049620	     -3.53262618	    -67.83918798	    -11.94800681	    -15.83786124	      6.70586057	     21.27716690	      6.30798930	    -10.18309249	    -18.79875681	      3.62238722	     -8.46056153	      3.47850911	      7.01620605	     -4.81103560	     -2.16831067
      4.47500000	    -11.05736708	      3.82966664	      0.72859065	     -0.70447751	     -0.00931613	     -0.65245974	     26.33470331	     -5.96743203	     -3.57488453	    -67.98868505	    -11.42731034	    -15.88476478	      6.87244448	     20.62944478	      6.35387539	    -10.05240314	    -18.33370148	      3.77767917	     -8.30833179	      3.49494277	      6.98455233	     -4.73944469	     -2.31524387
      4.48000000	    -10.95626421	      3.81247791	      0.83195435	     -0.69902304	     -0.00852297	     -0.65311848	     26.94143482	     -5.94496271	     -3.58613932	    -68.05736751	    -10.75831063	    -15.64321322	      7.32406107	     19.88898378	      6.45206273	    -10.00458827	    -17.83885987	      3.91681458	     -8.20713015	      3.46079722	      6.87270974	     -4.69353428	     -2.52325350
      4.48500000	    -10.79961141	      3.77147497	      0.89274936	     -0.69356558	     -0.00764792	     -0.65371076	     27.45974218	     -5.87201483	     -3.58440762	    -67.99193628	    -10.26731671	    -15.66459738	      8.09539945	     19.06149091	      6.51946332	     -9.85956117	    -17.30393488	      4.04361868	     -8.16388956	      3.35624084	      6.70634318	     -4.61161331	     -2.63171467
      4.49000000	    -10.73882680	      3.74873557	      1.01488302	     -0.68810335	     -0.00693463	     -0.65432897	     28.06878824	     -5.85777098	     -3.66290154	    -67.89717344	     -9.71787706	    -15.69444135	      8.37325835	     18.36207392	      6.60193207	     -9.80141321	    -16.80552409	      4.17297017	     -7.98412800	      3.35715916	      6.64686651	     -4.56744161	     -2.84412466
      4.49500000	    -10.60806770	      3.70605561	      1.10104404	     -0.68263122	     -0.00615916	     -0.65491597	     28.56932428	     -5.80435652	     -3.71024184	    -67.69906947	     -9.15583848	    -15.69989616	      8.66037074	     17.57128610	      6.65426038	     -9.71747736	    -16.28425278	      4.30874541	     -7.83108773	      3.36130265	      6.51475357	     -4.48881868	     -2.99787118
      4.50000000	    -10.47557699	      3.65711851	      1.18824320	     -0.67716839	     -0.00541192	     -0.65549497	     29.04328793	     -5.75040443	     -3.77631805	    -67.41790863	     -8.61873474	    -15.77085444	      8.87733258	     16.78172846	      6.69477235	     -9.63801338	    -15.76637956	      4.44075662	     -7.66551265	      3.37935425	      6.37977303	     -4.40343755	     -3.15805518
      4.50500000	    -10.36404802	      3.60600456	      1.27278572	     -0.67172139	     -0.00474714	     -0.65607798	     29.52502964	     -5.70082840	     -3.85197278	    -67.07305454	     -8.09846589	    -15.87252491	      8.99693122	     16.01907255	      6.73018103	     -9.55088144	    -15.25494401	      4.59541516	     -7.49568369	      3.41512496	      6.26763047	     -4.31336093	     -3.30139902
